<svg viewBox="0 0 600 400" xmlns="http://www.w3.org/2000/svg">
  <rect x="130" y="170" width="340" height="26" rx="8" fill="#d8d8d8"/>
  <rect x="160" y="196" width="18" height="120" rx="4" fill="#c4c4c4"/>
  <rect x="422" y="196" width="18" height="120" rx="4" fill="#c4c4c4"/>
  <rect x="60" y="120" width="70" height="18" rx="6" fill="#d8d8d8"/>
  <rect x="66" y="138" width="14" height="170" rx="4" fill="#c4c4c4"/>
  <rect x="112" y="196" width="14" height="112" rx="4" fill="#c4c4c4"/>
  <rect x="60" y="120" width="14" height="80" rx="4" fill="#cfcfcf"/>
  <rect x="470" y="120" width="70" height="18" rx="6" fill="#d8d8d8"/>
  <rect x="520" y="138" width="14" height="170" rx="4" fill="#c4c4c4"/>
  <rect x="474" y="196" width="14" height="112" rx="4" fill="#c4c4c4"/>
  <rect x="526" y="120" width="14" height="80" rx="4" fill="#cfcfcf"/>
  <rect x="250" y="140" width="100" height="30" rx="10" fill="#ffffff" opacity="0.35"/>
</svg>
